# xmcd CD database file
#
# Track frame offsets:
#	300
#	20957
#	38521
#	57784
#	79740
#	101396
#	122318
#	141311
#	162272
#
# Disc length: 2465 seconds
#
# Revision: 1
# Processed by: cddbd v1.5.2PL0 Copyright (c) Steve Scherf et al.
# Submitted via: CDex 1.60beta1-cs1
#
DISCID=6c099d09
DTITLE=さかばと - 幻想懐古
DYEAR=2008
DGENRE=東方アレンジ
TTITLE0=01 幻想懐古（原曲：東方幻想郷 幻想郷　～ Lotus Land Story）
TTITLE1=02 かんなぎ、かく語りき（原曲：東方靈異伝 永遠の巫女）
TTITLE2=03 縁（原曲：東方夢時空 Maple Dream）
TTITLE3=04 結集と散開（原曲：東方怪綺談 Peaceful Romancer）
TTITLE4=05 魚は江湖に相忘る（原曲：東方夢時空 リーインカーネイション）
TTITLE5=06 神木につどいしもの（原曲：東方夢時空 Tabula rasa　～ 空白少女）
TTITLE6=07 泡沫夢幻、見果てぬ夢（原曲：東方夢時空 夢消失　～ Lost Dream）
TTITLE7=08 幻想美（原曲：東方夢時空 夢は時空を越えて）
TTITLE8=09 終わり無き夢（原曲：幺樂団の歴史５ テーマオブ・イースタンストーリー、他）
EXTD=YEAR: 2008
EXTT0=
EXTT1=
EXTT2=
EXTT3=
EXTT4=
EXTT5=
EXTT6=
EXTT7=
EXTT8=
PLAYORDER=
